<mxfile host="65bd71144e">
    <diagram id="KOenlh3z3ckb4xm50bEm" name="Page-1">
        <mxGraphModel dx="1007" dy="605" grid="1" gridSize="10" guides="1" tooltips="1" connect="1" arrows="1" fold="1" page="1" pageScale="1" pageWidth="850" pageHeight="1100" math="0" shadow="0">
            <root>
                <mxCell id="0"/>
                <mxCell id="1" parent="0"/>
                <mxCell id="4" value="" style="edgeStyle=none;html=1;sketch=1;shadow=1;" edge="1" parent="1" source="2" target="3">
                    <mxGeometry relative="1" as="geometry"/>
                </mxCell>
                <mxCell id="6" value="" style="edgeStyle=none;html=1;sketch=1;shadow=1;" edge="1" parent="1" source="2" target="5">
                    <mxGeometry relative="1" as="geometry"/>
                </mxCell>
                <mxCell id="2" value="unregistered &lt;br&gt;user" style="shape=umlActor;verticalLabelPosition=bottom;verticalAlign=top;html=1;outlineConnect=0;sketch=1;shadow=1;" vertex="1" parent="1">
                    <mxGeometry x="192.5" y="110" width="30" height="60" as="geometry"/>
                </mxCell>
                <mxCell id="8" value="" style="edgeStyle=none;html=1;sketch=1;shadow=1;fillColor=#e51400;strokeColor=#B20000;" edge="1" parent="1" source="3" target="7">
                    <mxGeometry relative="1" as="geometry"/>
                </mxCell>
                <mxCell id="3" value="signup" style="rounded=1;whiteSpace=wrap;html=1;verticalAlign=top;sketch=1;shadow=1;" vertex="1" parent="1">
                    <mxGeometry x="352.5" y="125" width="75" height="30" as="geometry"/>
                </mxCell>
                <mxCell id="56" style="edgeStyle=none;sketch=1;html=1;shadow=1;" edge="1" parent="1" source="5" target="27">
                    <mxGeometry relative="1" as="geometry"/>
                </mxCell>
                <mxCell id="5" value="check the ticket&amp;nbsp;" style="rounded=1;whiteSpace=wrap;html=1;verticalAlign=top;sketch=1;shadow=1;" vertex="1" parent="1">
                    <mxGeometry x="170" y="230" width="75" height="45" as="geometry"/>
                </mxCell>
                <mxCell id="11" value="" style="edgeStyle=none;html=1;sketch=1;shadow=1;" edge="1" parent="1" source="7" target="10">
                    <mxGeometry relative="1" as="geometry"/>
                </mxCell>
                <mxCell id="17" value="" style="edgeStyle=none;html=1;sketch=1;shadow=1;" edge="1" parent="1" source="7" target="14">
                    <mxGeometry relative="1" as="geometry"/>
                </mxCell>
                <mxCell id="58" style="edgeStyle=none;sketch=1;html=1;exitX=0.75;exitY=0.1;exitDx=0;exitDy=0;exitPerimeter=0;shadow=1;entryX=0;entryY=1;entryDx=0;entryDy=0;" edge="1" parent="1" source="7" target="27">
                    <mxGeometry relative="1" as="geometry"/>
                </mxCell>
                <mxCell id="60" style="edgeStyle=none;sketch=1;html=1;entryX=1.019;entryY=0.391;entryDx=0;entryDy=0;entryPerimeter=0;shadow=1;" edge="1" parent="1" source="7" target="45">
                    <mxGeometry relative="1" as="geometry"/>
                </mxCell>
                <mxCell id="7" value="user" style="shape=umlActor;verticalLabelPosition=bottom;verticalAlign=top;html=1;outlineConnect=0;sketch=1;shadow=1;" vertex="1" parent="1">
                    <mxGeometry x="375" y="330" width="30" height="60" as="geometry"/>
                </mxCell>
                <mxCell id="59" style="edgeStyle=none;sketch=1;html=1;entryX=1;entryY=0.5;entryDx=0;entryDy=0;shadow=1;" edge="1" parent="1" source="10" target="23">
                    <mxGeometry relative="1" as="geometry"/>
                </mxCell>
                <mxCell id="62" value="" style="edgeStyle=none;sketch=1;html=1;shadow=1;fillColor=#e51400;strokeColor=#B20000;" edge="1" parent="1" source="10" target="61">
                    <mxGeometry relative="1" as="geometry"/>
                </mxCell>
                <mxCell id="10" value="login" style="rounded=1;whiteSpace=wrap;html=1;verticalAlign=top;sketch=1;shadow=0;fillStyle=solid;fillColor=#e51400;fontColor=#ffffff;strokeColor=#B20000;" vertex="1" parent="1">
                    <mxGeometry x="350" y="477.5" width="75" height="30" as="geometry"/>
                </mxCell>
                <mxCell id="13" value="" style="edgeStyle=none;html=1;sketch=1;shadow=1;" edge="1" parent="1" source="12" target="10">
                    <mxGeometry relative="1" as="geometry"/>
                </mxCell>
                <mxCell id="16" value="" style="edgeStyle=none;html=1;sketch=1;shadow=1;" edge="1" parent="1" source="12" target="14">
                    <mxGeometry relative="1" as="geometry"/>
                </mxCell>
                <mxCell id="29" style="edgeStyle=none;html=1;entryX=0.598;entryY=1.22;entryDx=0;entryDy=0;sketch=1;shadow=1;entryPerimeter=0;" edge="1" parent="1" source="12" target="27">
                    <mxGeometry relative="1" as="geometry">
                        <mxPoint x="527.5" y="517.5" as="sourcePoint"/>
                    </mxGeometry>
                </mxCell>
                <mxCell id="32" value="" style="edgeStyle=none;html=1;sketch=1;shadow=1;" edge="1" parent="1" source="12" target="33">
                    <mxGeometry relative="1" as="geometry">
                        <mxPoint x="615" y="467.5" as="targetPoint"/>
                    </mxGeometry>
                </mxCell>
                <mxCell id="12" value="admin" style="shape=umlActor;verticalLabelPosition=bottom;verticalAlign=top;html=1;outlineConnect=0;sketch=1;shadow=1;" vertex="1" parent="1">
                    <mxGeometry x="530" y="437.5" width="30" height="60" as="geometry"/>
                </mxCell>
                <mxCell id="26" value="" style="edgeStyle=none;html=1;sketch=1;shadow=1;" edge="1" parent="1" source="23" target="25">
                    <mxGeometry relative="1" as="geometry"/>
                </mxCell>
                <mxCell id="23" value="personal &lt;br&gt;account &lt;br&gt;management" style="rounded=1;whiteSpace=wrap;html=1;verticalAlign=top;sketch=1;shadow=1;" vertex="1" parent="1">
                    <mxGeometry x="160" y="462.5" width="120" height="60" as="geometry"/>
                </mxCell>
                <mxCell id="25" value="change password" style="whiteSpace=wrap;html=1;verticalAlign=top;rounded=1;sketch=1;shadow=1;" vertex="1" parent="1">
                    <mxGeometry x="160" y="553.75" width="120" height="30" as="geometry"/>
                </mxCell>
                <mxCell id="44" value="" style="edgeStyle=none;sketch=1;html=1;shadow=1;" edge="1" parent="1" source="27" target="43">
                    <mxGeometry relative="1" as="geometry"/>
                </mxCell>
                <mxCell id="27" value="read lottory results" style="whiteSpace=wrap;html=1;verticalAlign=top;rounded=1;sketch=1;shadow=1;" vertex="1" parent="1">
                    <mxGeometry x="500" y="237.5" width="120" height="30" as="geometry"/>
                </mxCell>
                <mxCell id="30" value="+ add &amp;amp;&lt;br&gt;update&lt;br&gt;result" style="text;html=1;align=center;verticalAlign=middle;resizable=0;points=[];autosize=1;strokeColor=none;fillColor=none;sketch=1;shadow=1;" vertex="1" parent="1">
                    <mxGeometry x="560" y="341.25" width="60" height="50" as="geometry"/>
                </mxCell>
                <mxCell id="39" style="edgeStyle=none;sketch=1;html=1;entryX=0;entryY=0.5;entryDx=0;entryDy=0;shadow=1;" edge="1" parent="1" source="33">
                    <mxGeometry relative="1" as="geometry">
                        <mxPoint x="727.5" y="378.75" as="targetPoint"/>
                    </mxGeometry>
                </mxCell>
                <mxCell id="40" style="edgeStyle=none;sketch=1;html=1;entryX=0;entryY=0.5;entryDx=0;entryDy=0;shadow=1;" edge="1" parent="1" source="33">
                    <mxGeometry relative="1" as="geometry">
                        <mxPoint x="727.5" y="452.5" as="targetPoint"/>
                    </mxGeometry>
                </mxCell>
                <mxCell id="41" style="edgeStyle=none;sketch=1;html=1;entryX=0;entryY=0.5;entryDx=0;entryDy=0;shadow=1;" edge="1" parent="1" source="33">
                    <mxGeometry relative="1" as="geometry">
                        <mxPoint x="727.5" y="522.5" as="targetPoint"/>
                    </mxGeometry>
                </mxCell>
                <mxCell id="42" style="edgeStyle=none;sketch=1;html=1;entryX=0;entryY=0.5;entryDx=0;entryDy=0;shadow=1;" edge="1" parent="1" source="33">
                    <mxGeometry relative="1" as="geometry">
                        <mxPoint x="727.5" y="592.5" as="targetPoint"/>
                    </mxGeometry>
                </mxCell>
                <mxCell id="33" value="users&amp;nbsp;&lt;br&gt;management" style="whiteSpace=wrap;html=1;aspect=fixed;rounded=1;sketch=1;glass=0;shadow=1;fillStyle=auto;" vertex="1" parent="1">
                    <mxGeometry x="597.5" y="427.5" width="80" height="80" as="geometry"/>
                </mxCell>
                <mxCell id="35" value="search by email" style="rounded=1;whiteSpace=wrap;html=1;verticalAlign=top;sketch=1;shadow=1;" vertex="1" parent="1">
                    <mxGeometry x="727.5" y="381.25" width="75" height="37.5" as="geometry"/>
                </mxCell>
                <mxCell id="36" value="set admin" style="rounded=1;whiteSpace=wrap;html=1;verticalAlign=top;sketch=1;shadow=1;" vertex="1" parent="1">
                    <mxGeometry x="727.5" y="598.75" width="75" height="30" as="geometry"/>
                </mxCell>
                <mxCell id="37" value="delete user" style="rounded=1;whiteSpace=wrap;html=1;verticalAlign=top;sketch=1;shadow=1;" vertex="1" parent="1">
                    <mxGeometry x="727.5" y="528.75" width="75" height="30" as="geometry"/>
                </mxCell>
                <mxCell id="38" value="read" style="rounded=1;whiteSpace=wrap;html=1;verticalAlign=top;sketch=1;shadow=1;" vertex="1" parent="1">
                    <mxGeometry x="727.5" y="458.75" width="75" height="30" as="geometry"/>
                </mxCell>
                <mxCell id="43" value="search by date" style="whiteSpace=wrap;html=1;verticalAlign=top;rounded=1;sketch=1;shadow=1;" vertex="1" parent="1">
                    <mxGeometry x="677.5" y="237.5" width="120" height="30" as="geometry"/>
                </mxCell>
                <mxCell id="48" value="" style="edgeStyle=none;sketch=1;html=1;shadow=1;" edge="1" parent="1" source="45" target="47">
                    <mxGeometry relative="1" as="geometry"/>
                </mxCell>
                <mxCell id="49" value="" style="edgeStyle=none;sketch=1;html=1;shadow=1;" edge="1" parent="1" source="45" target="5">
                    <mxGeometry relative="1" as="geometry"/>
                </mxCell>
                <mxCell id="53" style="edgeStyle=none;sketch=1;html=1;entryX=1;entryY=0.5;entryDx=0;entryDy=0;shadow=1;" edge="1" parent="1" source="45" target="50">
                    <mxGeometry relative="1" as="geometry"/>
                </mxCell>
                <mxCell id="54" style="edgeStyle=none;sketch=1;html=1;entryX=1;entryY=0.5;entryDx=0;entryDy=0;shadow=1;" edge="1" parent="1" source="45" target="52">
                    <mxGeometry relative="1" as="geometry"/>
                </mxCell>
                <mxCell id="45" value="checking&lt;br&gt;history&lt;br&gt;management" style="rounded=1;whiteSpace=wrap;html=1;shadow=1;glass=0;sketch=1;fillStyle=auto;" vertex="1" parent="1">
                    <mxGeometry x="147.5" y="336.25" width="120" height="60" as="geometry"/>
                </mxCell>
                <mxCell id="47" value="add history" style="rounded=1;whiteSpace=wrap;html=1;verticalAlign=top;sketch=1;shadow=1;" vertex="1" parent="1">
                    <mxGeometry x="30" y="355" width="75" height="35" as="geometry"/>
                </mxCell>
                <mxCell id="50" value="read" style="rounded=1;whiteSpace=wrap;html=1;verticalAlign=top;sketch=1;shadow=1;" vertex="1" parent="1">
                    <mxGeometry x="30" y="295" width="75" height="35" as="geometry"/>
                </mxCell>
                <mxCell id="52" value="delete all" style="rounded=1;whiteSpace=wrap;html=1;verticalAlign=top;sketch=1;shadow=1;" vertex="1" parent="1">
                    <mxGeometry x="30" y="410" width="75" height="35" as="geometry"/>
                </mxCell>
                <mxCell id="14" value="forget password" style="rounded=1;whiteSpace=wrap;html=1;verticalAlign=top;sketch=1;shadow=1;" vertex="1" parent="1">
                    <mxGeometry x="455" y="336.25" width="75" height="45" as="geometry"/>
                </mxCell>
                <mxCell id="61" value="logout" style="rounded=1;whiteSpace=wrap;html=1;verticalAlign=top;sketch=1;shadow=0;fillStyle=solid;" vertex="1" parent="1">
                    <mxGeometry x="350" y="587.5" width="75" height="30" as="geometry"/>
                </mxCell>
            </root>
        </mxGraphModel>
    </diagram>
</mxfile>